HIERARCHY
ROOT root
{
	OFFSET	0	13.1	24.9
	CHANNELS 6  Xposition Yposition Zposition Xrotation Yrotation Zrotation
	JOINT spine_1
	{
		OFFSET	0	9.99999	0
		CHANNELS 3  Xrotation Yrotation Zrotation
		JOINT spine_2
		{
			OFFSET	0	112	-10
			CHANNELS 3  Xrotation Yrotation Zrotation
			JOINT spine_3
			{
				OFFSET	0	206.5	19.3
				CHANNELS 3  Xrotation Yrotation Zrotation
				JOINT spine_4
				{
					OFFSET	0	110.4	14.6
					CHANNELS 3  Xrotation Yrotation Zrotation
					JOINT neck_1
					{
						OFFSET	0	71.8	-50.3
						CHANNELS 3  Xrotation Yrotation Zrotation
						JOINT neck_2
						{
							OFFSET	0	86.2	-25.8
							CHANNELS 3  Xrotation Yrotation Zrotation
							JOINT head_ee
							{
								OFFSET	0	179.8	-8.7
								CHANNELS 3  Xrotation Yrotation Zrotation
								End Site
								{
									OFFSET	1	0	0
								}
							}
						}
					}
					JOINT left_clavicle
					{
						OFFSET	-43.2	22.4	-70.8
						CHANNELS 3  Xrotation Yrotation Zrotation
						JOINT left_shoulder
						{
							OFFSET	-93.9	-5.79999	48.7
							CHANNELS 3  Xrotation Yrotation Zrotation
							JOINT left_elbow
							{
								OFFSET	-291.4	-30.8	15.2
								CHANNELS 3  Xrotation Yrotation Zrotation
								JOINT left_lowarm_twist
								{
									OFFSET	-110.7	-3.89999	13.6
									CHANNELS 3  Xrotation Yrotation Zrotation
									JOINT left_hand
									{
										OFFSET	-110.7	-3.89999	13.6
										CHANNELS 3  Xrotation Yrotation Zrotation
										JOINT left_ee
										{
											OFFSET	-80.8	-5.10001	12.1
											CHANNELS 3  Xrotation Yrotation Zrotation
											End Site
											{
												OFFSET	1	0	0
											}
										}
									}
								}
							}
						}
					}
					JOINT right_clavicle
					{
						OFFSET	43.2	22.4	-70.8
						CHANNELS 3  Xrotation Yrotation Zrotation
						JOINT right_shoulder
						{
							OFFSET	93.9	-5.79999	48.7
							CHANNELS 3  Xrotation Yrotation Zrotation
							JOINT right_elbow
							{
								OFFSET	291.4	-30.8	15.2
								CHANNELS 3  Xrotation Yrotation Zrotation
								JOINT right_lowarm_twist
								{
									OFFSET	110.7	-3.89999	13.6
									CHANNELS 3  Xrotation Yrotation Zrotation
									JOINT right_hand
									{
										OFFSET	110.7	-3.89999	13.6
										CHANNELS 3  Xrotation Yrotation Zrotation
										JOINT right_ee
										{
											OFFSET	80.8	-5.10001	12.1
											CHANNELS 3  Xrotation Yrotation Zrotation
											End Site
											{
												OFFSET	1	0	0
											}
										}
									}
								}
							}
						}
					}
				}
			}
		}
	}
	JOINT left_hip
	{
		OFFSET	-82.8	-127.5	0.300001
		CHANNELS 3  Xrotation Yrotation Zrotation
		JOINT left_knee
		{
			OFFSET	-28.2	-396.7	2.2
			CHANNELS 3  Xrotation Yrotation Zrotation
			JOINT left_ankle
			{
				OFFSET	-11.7	-411.3	35.4
				CHANNELS 3  Xrotation Yrotation Zrotation
				JOINT left_toes
				{
					OFFSET	0	-60	-88.6
					CHANNELS 3  Xrotation Yrotation Zrotation
					JOINT left_foot_ee
					{
						OFFSET	-22.5	-16.5	-42.2
						CHANNELS 3  Xrotation Yrotation Zrotation
						End Site
						{
							OFFSET	1	0	0
						}
					}
				}
			}
		}
	}
	JOINT right_hip
	{
		OFFSET	82.8	-127.5	0.300001
		CHANNELS 3  Xrotation Yrotation Zrotation
		JOINT right_knee
		{
			OFFSET	28.2	-396.7	2.2
			CHANNELS 3  Xrotation Yrotation Zrotation
			JOINT right_ankle
			{
				OFFSET	11.7	-411.3	35.4
				CHANNELS 3  Xrotation Yrotation Zrotation
				JOINT right_toes
				{
					OFFSET	0	-60	-88.6
					CHANNELS 3  Xrotation Yrotation Zrotation
					JOINT right_foot_ee
					{
						OFFSET	22.5	-16.5	-42.2
						CHANNELS 3  Xrotation Yrotation Zrotation
						End Site
						{
							OFFSET	1	0	0
						}
					}
				}
			}
		}
	}
}
MOTION
Frames: 10
Frame Time: 0.02
2763.14091533 690.779 -1633.36346702 -0.179898914462 53.2750295869 -2.13701652057 -0.182231 -0.0282214 0.260253 -0.182195 -0.0447247 0.25793 -0.182385 -0.0987094 0.242455 -0.182462 -0.0591795 0.255002 -14.2397 16.3487 4.30116 -14.8898 28.6534 9.52718 -0.0 0.0 -0.0 6.66468 15.4694 12.5353 -5.22691 -20.1998 55.3807 1.29406 -32.6599 0.379157 -16.6901 -0.877069 1.938 -1.1049 13.6053 -1.33196 -0.0 0.0 -0.0 10.541 18.7562 -20.7026 -17.3608 14.0864 -57.9154 0.802317 21.675 -0.153597 54.3142 1.29468 6.55941 0.388765 -13.2506 -7.90594 0.0 0.0 0.0 1.90801 -6.46865 11.8569 -12.5639 0.310117 1.89932 27.9225 19.3493 -3.75761 13.4882 -0.0 -0.0 -0.0 0.0 -0.0 18.5172 32.8153 0.234385 -48.0512 1.05671 -7.08619 24.9098 -2.93515 3.32726 8.75193 -0.0 -0.0 0.0 0.0 0.0 
2748.27496416 693.947 -1623.44320251 0.15524110261 52.2400875109 -2.85229163693 0.0525263 0.31647 0.312751 0.052532 0.295928 0.332254 0.0543012 0.219858 0.386818 0.0542006 0.278189 0.347242 -15.5543 16.4115 5.77682 -16.2496 28.1105 11.2739 -0.0 0.0 -0.0 6.42121 15.0069 12.157 -4.81092 -19.8802 55.0016 1.48157 -36.2737 0.485332 -17.0261 -0.900409 1.97414 -1.32446 12.3279 -3.28654 -0.0 0.0 -0.0 10.8706 18.9495 -21.4334 -18.246 13.2623 -57.7618 0.584906 16.1589 -0.083031 54.1923 1.28501 6.54715 0.0831025 -14.2164 -6.35243 0.0 0.0 0.0 0.584691 -5.54912 12.9589 -12.6996 0.311179 1.92012 27.4505 19.815 -3.71006 11.6672 -0.0 -0.0 -0.0 0.0 -0.0 19.611 31.1329 -0.202995 -43.4558 0.701129 -6.47515 20.2135 -6.03213 2.75761 8.37303 -0.0 -0.0 0.0 0.0 0.0 
2739.59745235 698.042 -1615.46573959 -1.69320302683 52.9756014411 -1.4909547219 0.0919171 0.238542 0.521659 0.092045 0.204865 0.53578 0.0940707 0.0886172 0.566724 0.0936665 0.177007 0.545617 -15.2185 16.5645 3.78312 -16.0349 29.508 9.42749 -0.0 0.0 -0.0 6.35752 16.8593 11.9595 -3.02213 -19.9646 54.0551 1.76015 -41.0823 0.659579 -20.1461 -1.12717 2.30303 -1.94754 12.9169 -6.95191 -0.0 0.0 -0.0 10.5884 17.8436 -20.8651 -18.6944 12.0031 -58.3723 0.653138 17.9288 -0.103032 54.5625 1.31445 6.58433 -0.42682 -14.9908 -3.48289 0.0 0.0 0.0 0.669913 -4.59447 13.5815 -10.4978 0.287874 1.5831 26.2926 20.2474 -3.58075 11.2406 -0.0 -0.0 -0.0 0.0 -0.0 21.8881 32.5427 -1.98986 -38.7669 0.390189 -5.82489 17.6321 -6.48811 2.43323 7.23182 -0.0 -0.0 0.0 0.0 0.0 
2734.80828509 697.427 -1616.81567778 -2.87306360383 51.1138252282 -0.196676412029 0.135524 0.490079 0.577098 0.135596 0.452365 0.607112 0.140558 0.316374 0.68784 0.140145 0.421033 0.629245 -16.3075 16.8186 4.08461 -17.2669 29.9627 10.1425 -0.0 0.0 -0.0 6.28549 17.3832 11.8164 -1.14878 -20.1353 53.1583 2.0108 -44.8828 0.830564 -21.6397 -1.24201 2.45603 -2.38932 12.9044 -9.76857 -0.0 0.0 -0.0 10.906 18.697 -21.5295 -18.6294 11.2004 -58.308 0.502277 13.9724 -0.0615495 54.7404 1.32869 6.60214 -0.848105 -15.9232 -1.27318 0.0 0.0 0.0 -0.210722 -4.92325 13.6155 -8.13346 0.24845 1.22247 25.975 21.796 -3.5677 10.9928 -0.0 -0.0 -0.0 0.0 -0.0 24.3812 31.295 -3.36914 -32.9223 0.0789148 -4.98298 13.8342 -7.89492 1.93893 5.93424 -0.0 -0.0 0.0 0.0 0.0 
2731.13646544 700.009 -1615.41979847 -3.46425146 50.4895521673 0.135479416432 0.136675 0.503196 0.659104 0.136798 0.460237 0.689787 0.142551 0.30693 0.770333 0.141974 0.424735 0.712196 -17.5143 17.3861 4.65 -18.6744 30.893 11.2952 -0.0 0.0 -0.0 6.25942 16.7124 11.8093 -0.0778813 -20.3818 52.0714 2.33055 -49.0943 1.06452 -23.3598 -1.37918 2.62851 -2.39802 10.7421 -10.9198 -0.0 0.0 -0.0 11.2035 20.2368 -22.099 -18.8571 11.0659 -58.2429 0.411903 11.5328 -0.0415958 55.0468 1.35333 6.6327 -1.44291 -20.8884 0.114252 0.0 0.0 0.0 -0.481767 -4.21686 13.901 -5.29494 0.181509 0.792057 23.7706 26.3239 -3.381 9.56112 -0.0 -0.0 -0.0 0.0 -0.0 26.658 30.094 -3.33765 -26.1201 -0.173014 -3.97007 9.689 -8.57608 1.37877 3.10754 -0.0 -0.0 0.0 0.0 0.0 
2731.91138776 700.009 -1609.35296378 -3.52271205579 51.2683531649 0.21083148682 0.136675 0.503196 0.659104 0.136798 0.460237 0.689787 0.142551 0.30693 0.770333 0.141974 0.424735 0.712196 -17.5143 17.3861 4.65 -18.6744 30.893 11.2952 -0.0 0.0 -0.0 6.25942 16.7124 11.8093 -0.0778813 -20.3818 52.0714 2.33055 -49.0943 1.06452 -23.3598 -1.37918 2.62851 -2.39802 10.7421 -10.9198 -0.0 0.0 -0.0 11.2035 20.2368 -22.099 -18.8571 11.0659 -58.2429 0.411903 11.5328 -0.0415958 55.0468 1.35333 6.6327 -1.44291 -20.8884 0.114252 0.0 0.0 0.0 -0.481767 -4.21686 13.901 -5.29494 0.181509 0.792057 23.7706 26.3239 -3.381 9.56112 -0.0 -0.0 -0.0 0.0 -0.0 26.658 30.094 -3.33765 -26.1201 -0.173014 -3.97007 9.689 -8.57608 1.37877 3.10754 -0.0 -0.0 0.0 0.0 0.0 
2721.0938628 700.53 -1607.64995851 -3.5712526882 50.8013270841 0.288777058759 0.211905 0.59748 0.774098 0.212072 0.547013 0.810546 0.220096 0.367974 0.905977 0.219308 0.506433 0.836499 -16.4585 18.1994 5.18303 -17.5676 32.025 11.788 -0.0 0.0 -0.0 6.28024 16.6609 11.8454 1.31044 -20.3117 51.624 2.49711 -51.0395 1.19226 -24.2237 -1.45002 2.71358 -2.67055 10.9488 -12.5914 -0.0 0.0 -0.0 11.1721 20.7526 -21.9892 -19.5685 9.91645 -58.1504 0.34387 9.66736 -0.0290792 55.2472 1.36954 6.65262 -1.74377 -21.9566 1.37949 0.0 0.0 0.0 -1.2984 -4.68265 14.6253 -4.64199 0.163098 0.693543 24.2452 27.0277 -3.45644 8.8809 -0.0 -0.0 -0.0 0.0 -0.0 28.0249 28.939 -4.94001 -22.3774 -0.259827 -3.40238 8.24047 -9.39426 1.1786 2.22105 -0.0 -0.0 0.0 0.0 0.0 
2708.3980375 695.487 -1615.24042309 -3.00242695155 51.4284789271 -0.406294935822 0.099815 0.249832 0.845117 0.100191 0.195551 0.8593 0.103368 0.012177 0.881184 0.102316 0.151185 0.868204 -18.0667 17.9213 5.60463 -19.3161 31.4852 12.586 -0.0 0.0 -0.0 6.21371 16.2776 11.7567 2.45527 -20.4208 50.7377 2.79248 -54.1267 1.42694 -25.3404 -1.54348 2.82194 -2.9166 11.2329 -14.0553 -0.0 0.0 -0.0 11.1594 21.979 -21.862 -20.5538 9.25705 -58.5632 0.353276 9.92658 -0.0306796 55.2232 1.36759 6.65024 -2.09421 -24.2469 2.29116 0.0 0.0 0.0 -2.3455 -6.14725 15.2109 -3.89413 0.140632 0.580969 24.5531 27.8059 -3.51337 8.22464 -0.0 -0.0 -0.0 0.0 -0.0 30.8922 27.607 -6.37668 -19.1639 -0.30465 -2.91139 2.72175 -11.0669 0.396046 0.780936 -0.0 -0.0 0.0 0.0 0.0 
2696.87358431 690.139 -1617.71764791 -3.32758027717 51.9431083764 0.194141068166 0.0999996 -0.0671622 0.707249 0.100271 -0.112029 0.701543 0.0989732 -0.255844 0.662766 0.0983907 -0.147964 0.694852 -18.4998 18.5289 6.4394 -19.8509 32.2788 13.7757 -0.0 0.0 -0.0 6.31087 15.8868 11.9333 3.34634 -20.4095 50.4772 3.04323 -56.4305 1.63308 -25.7655 -1.57962 2.86272 -2.97178 11.06 -14.5112 -0.0 0.0 -0.0 10.9225 22.1845 -21.3077 -21.3844 8.64398 -58.3888 0.347737 9.77398 -0.0297321 55.2388 1.36886 6.65178 -2.43107 -26.8311 2.87657 0.0 0.0 0.0 -3.20708 -7.00485 15.5334 -3.20567 0.11865 0.477598 23.0763 28.188 -3.33232 7.47297 -0.0 -0.0 -0.0 0.0 -0.0 32.4207 25.8757 -6.55563 -16.5879 -0.320658 -2.5165 -1.87975 -12.1747 -0.27684 -0.389535 0.0 0.0 0.0 0.0 0.0 
2672.27482073 689.792 -1633.10162469 -4.17849878102 52.2583787785 0.788733178534 0.166516 -0.130895 0.955995 0.167005 -0.191459 0.94573 0.16395 -0.383459 0.885455 0.162936 -0.238812 0.934897 -17.7596 19.985 7.24285 -19.209 34.5487 14.9339 -0.0 0.0 -0.0 6.46375 11.5808 12.3729 6.07015 -19.703 48.7117 3.22314 -57.9277 1.78428 -26.8355 -1.67191 2.96417 -3.14188 13.312 -14.3998 -0.0 0.0 -0.0 10.1828 20.6523 -19.7642 -22.911 8.26957 -60.6953 0.403794 11.3117 -0.0399899 55.4374 1.38498 6.67146 -2.51528 -28.7995 2.31776 0.0 0.0 0.0 -5.58921 -6.03602 15.0863 -0.71961 0.0289613 0.106634 26.5424 28.3362 -3.77699 5.44928 -0.0 -0.0 -0.0 0.0 -0.0 33.2769 23.2825 -7.43288 -7.79939 -0.24168 -1.17165 -6.00443 -10.055 -0.889934 -2.17235 0.0 0.0 0.0 0.0 0.0 
